<?xml version="1.0" standalone="no"?>
<!DOCTYPE svg PUBLIC "-//W3C//DTD SVG 20010904//EN"
 "http://www.w3.org/TR/2001/REC-SVG-20010904/DTD/svg10.dtd">
<svg version="1.0" xmlns="http://www.w3.org/2000/svg"
 width="512.000000pt" height="512.000000pt" viewBox="0 0 512.000000 512.000000"
 preserveAspectRatio="xMidYMid meet">
<metadata>
Created by potrace 1.14, written by Peter Selinger 2001-2017
</metadata>
<g transform="translate(0.000000,512.000000) scale(0.100000,-0.100000)"
fill="#000000" stroke="none">
<path d="M0 2560 l0 -2560 2560 0 2560 0 0 2560 0 2560 -2560 0 -2560 0 0
-2560z m2200 573 l0 -506 380 506 380 507 211 0 c165 0 209 -3 203 -12 -5 -7
-168 -224 -363 -483 -195 -258 -354 -475 -354 -480 0 -6 165 -271 368 -590
203 -319 377 -595 388 -612 l19 -33 -219 0 -218 1 -90 146 c-49 80 -181 292
-291 470 l-201 324 -107 -143 -106 -142 0 -328 0 -328 -200 0 -200 0 0 1105 0
1105 200 0 200 0 0 -507z"/>
</g>
</svg>
